# xmcd
#
# Track frame offsets: 
#        150
#        18992
#        34851
#        55872
#        76310
#        90518
#        110877
#        134424
#        152251
#        176492
#        194066
#        215661
#        233560
#        258307
#        271844
#        290209
#        309363
#
# Disc length: 4400 seconds
#
# Revision: 0
# Processed by: cddbd v1.5.2PL0 Copyright (c) Steve Scherf et al.
# Submitted via: ExactAudioCopy v0.95b4
#
DISCID=ec112e11
DTITLE=Various Artist - A Walk On The Blues Side-CD 1
DYEAR=2007
DGENRE=Blues
TTITLE0=Hard Knock - The Fabulous Thunderbirds
TTITLE1=Til I Found You - Susan Tedeschi
TTITLE2=Back Door Stam - Robert Cray
TTITLE3=Blues Power- Koko Taylor
TTITLE4=Crazy Cajun Cakewalk Band- Robert Palmer
TTITLE5=It Takes a Lot To Laugh, It TAkes A Train To Cry - Taj Mahal
TTITLE6=Track0The Weight - Joan Osborne
TTITLE7=Last Train To Memphis - The Band
TTITLE8=Slow Moving Train - The Disie Hummingbirds
TTITLE9=Before You Accuse Me - Bo Diddley
TTITLE10=One Good Man - Lu Anne Barton
TTITLE11=Custard Pie - Eric Gales
TTITLE12=Get Off My Cloud - Alexis Korner
TTITLE13=No Dope - Blind Boys Of Alabama
TTITLE14=I Gotta Right To Sing The Blues - Francine Reed
TTITLE15=What Good Can Druinkin´Do - Tracy Nelson
TTITLE16=When A Man Loves A Woman - Spender Davis Group
EXTD=
EXTT0=
EXTT1=
EXTT2=
EXTT3=
EXTT4=
EXTT5=
EXTT6=
EXTT7=
EXTT8=
EXTT9=
EXTT10=
EXTT11=
EXTT12=
EXTT13=
EXTT14=
EXTT15=
EXTT16=
PLAYORDER=
